<?xml version="1.0" standalone="no"?>
<!DOCTYPE svg PUBLIC "-//W3C//DTD SVG 20010904//EN"
 "http://www.w3.org/TR/2001/REC-SVG-20010904/DTD/svg10.dtd">
<svg version="1.0" xmlns="http://www.w3.org/2000/svg"
 width="512.000000pt" height="512.000000pt" viewBox="0 0 512.000000 512.000000"
 preserveAspectRatio="xMidYMid meet">
<metadata>
Created by potrace 1.11, written by Peter Selinger 2001-2013
</metadata>
<g transform="translate(0.000000,512.000000) scale(0.100000,-0.100000)"
fill="#000000" stroke="none">
<path d="M2315 5109 c-309 -32 -617 -120 -885 -253 -124 -62 -285 -157 -331
-195 l-24 -20 1122 -1 c848 0 1128 -3 1148 -12 54 -25 55 -31 55 -493 0 -453
-3 -480 -48 -504 -14 -7 -174 -11 -495 -11 l-474 0 -5 -479 c-5 -524 -5 -519
-64 -541 -15 -6 -208 -10 -459 -10 l-435 0 -32 29 -33 29 -3 486 -3 486 -479
0 -479 0 -28 24 c-25 21 -29 33 -33 98 l-5 73 -57 -116 c-395 -799 -349 -1746
121 -2494 268 -427 677 -781 1131 -981 162 -71 453 -164 514 -164 14 0 16 94
16 955 0 1033 -2 997 52 1026 15 8 163 13 494 17 l473 5 3 471 c3 435 4 474
21 499 10 16 29 32 43 37 15 6 221 10 495 10 l469 0 0 -1025 0 -1025 -509 0
-508 0 -5 -483 c-3 -265 -4 -485 -2 -489 6 -9 242 54 354 95 236 86 464 209
667 360 149 111 416 380 522 527 257 356 397 693 472 1135 30 171 33 577 6
748 -71 458 -261 891 -548 1246 -101 126 -319 337 -444 432 -354 265 -783 441
-1220 499 -112 15 -462 21 -570 9z"/>
</g>
</svg>
